# xmcd CD database file
#
# Track frame offsets:
#	150
#	27611
#	54713
#	80670
#	90797
#	103574
#	117270
#	130721
#	144945
#	167010
#	184923
#	203318
#	219247
#	235075
#	257911
#	279206
#	299801
#	318666
#	329145
#
# Disc length: 4558 seconds
#
# Revision: 0
# Processed by: cddbd v1.5.2PL0 Copyright (c) Steve Scherf et al.
# Submitted via: CDex 1.70beta1
#
DISCID=1611cc13
DTITLE=Humphrey Lyttleton - 1957 - 58 CD 2
DYEAR=1900
DGENRE=Jazz
TTITLE0=In A Mellotone 
TTITLE1=Kath Meets Humph 
TTITLE2=Molten Swing 
TTITLE3=Buona Sera 
TTITLE4=Blues In The Afternoon 
TTITLE5=Hand Me Down Love 
TTITLE6=Here And Gone 
TTITLE7=Weary Blues 
TTITLE8=Trouble In Mind 
TTITLE9=Irish Black Bottom 
TTITLE10=Out Of The Gallion 
TTITLE11=Struttin' With Some Barbeque 
TTITLE12=In Swinger 
TTITLE13=Big Bill Blues 
TTITLE14=Black Beauty 
TTITLE15=Black And Blue 
TTITLE16=Unbooted Character 
TTITLE17=Saturday Jump 
TTITLE18=The Bear Steps Out 
EXTD=
EXTT0=
EXTT1=
EXTT2=
EXTT3=
EXTT4=
EXTT5=
EXTT6=
EXTT7=
EXTT8=
EXTT9=
EXTT10=
EXTT11=
EXTT12=
EXTT13=
EXTT14=
EXTT15=
EXTT16=
EXTT17=
EXTT18=
PLAYORDER=
